# xmcd
#
# Track frame offsets:
#	150
#	15992
#	35046
#	53482
#	75032
#	89907
#	110021
#	123908
#	142531
#	165007
#	183689
#	207955
#
# Disc length: 2806 seconds
# Revision: 3
# Processed by: cddbd v1.5.2PL0 Copyright (c) Steve Scherf et al.
# Submitted via: dBpowerAMP V12.0
#
DISCID=8a0af40c
DTITLE=Brad Paisley - Brad Paisley Christmas
DYEAR=2006
DGENRE=Christmas
TTITLE0=Winter Wonderland
TTITLE1=Santa Looked A Lot Like Daddy
TTITLE2=I'll Be Home For Christmas
TTITLE3=Away In A Manger
TTITLE4=Penguin, James Penguin
TTITLE5=364 Days To Go
TTITLE6=Jingle Bells (Instrumental)
TTITLE7=Silent Night
TTITLE8=Born On Christmas Day
TTITLE9=Silver Bells
TTITLE10=Kung Pao Buckaroo Holiday - feat. The Kung Pao Buckaroos
TTITLE11=Hidden Track
EXTD=
EXTT0=
EXTT1=
EXTT2=
EXTT3=
EXTT4=
EXTT5=
EXTT6=
EXTT7=
EXTT8=
EXTT9=
EXTT10=
EXTT11=
PLAYORDER=
